<?xml version="1.0" encoding="utf-8"?>
<!-- Generator: Adobe Illustrator 24.1.3, SVG Export Plug-In . SVG Version: 6.00 Build 0)  -->
<svg version="1.1" id="Calque_1" xmlns="http://www.w3.org/2000/svg" xmlns:xlink="http://www.w3.org/1999/xlink" x="0px" y="0px"
	 viewBox="0 0 47.8 35.6" style="enable-background:new 0 0 47.8 35.6;" xml:space="preserve">
<style type="text/css">
	.st0{fill:#F7A813;}
</style>
<g>
	<path class="st0" d="M7.9,24.7L7.9,24.7h10.2c1.1,0,1.9-0.9,1.9-1.9c0-0.5-0.2-0.9-0.5-1.3c-0.4-0.4-0.9-0.6-1.4-0.6H7.7
		c-1.1,0.1-1.8,1-1.8,2.1C6,23.9,6.9,24.7,7.9,24.7z"/>
	<path class="st0" d="M7.6,29L7.6,29L7.6,29c0.1,0,0.1,0,0.2,0h0.1h4.4c0.5,0,1-0.2,1.4-0.5s0.6-0.8,0.6-1.3c0-1.1-0.8-2-1.9-2l0,0
		H7.9c-1,0-1.9,0.7-2,1.8C5.7,28,6.5,28.9,7.6,29z"/>
	<path class="st0" d="M41.9,0.2h-36c-3.1,0-5.6,2.5-5.7,5.7v23.9c0,3.1,2.5,5.6,5.7,5.7H42c3.1,0,5.6-2.5,5.6-5.7v-24
		C47.6,2.7,45.1,0.2,41.9,0.2z M4,5.8C4,4.8,4.8,4,5.8,4l0,0l0,0h36.1c0.5,0,0.9,0.2,1.3,0.5c0.4,0.3,0.5,0.8,0.5,1.3v2.4H4V5.8z
		 M43.7,29.8c0,0.5-0.2,0.9-0.5,1.3c-0.3,0.3-0.8,0.5-1.3,0.5H5.8c-1,0-1.8-0.8-1.8-1.8l0,0v-12h39.7V29.8z M43.7,13.9H4.1v-1.8
		h39.7L43.7,13.9L43.7,13.9z"/>
</g>
</svg>
