<?xml version="1.0" encoding="utf-8"?>
<!-- Generator: Adobe Illustrator 24.1.3, SVG Export Plug-In . SVG Version: 6.00 Build 0)  -->
<svg version="1.1" id="Calque_1" xmlns="http://www.w3.org/2000/svg" xmlns:xlink="http://www.w3.org/1999/xlink" x="0px" y="0px"
	 viewBox="0 0 35.7 35.6" style="enable-background:new 0 0 35.7 35.6;" xml:space="preserve">
<style type="text/css">
	.st0{fill:#717070;}
</style>
<g id="Groupe_13" transform="translate(0)">
	<g id="Groupe_12">
		<path id="Tracé_20" class="st0" d="M27.6,15.8V0.2H8V8H0.2v27.4h15.7v-7.8h3.9v7.8h15.6V15.8H27.6z M8,31.5H4.1v-3.9H8V31.5z
			 M8,23.7H4.1v-3.9H8V23.7z M8,15.8H4.1v-3.9H8V15.8z M15.9,23.7H12v-3.9h3.9V23.7z M15.9,15.8H12v-3.9h3.9V15.8z M15.9,8H12V4.1
			h3.9V8z M23.7,23.7h-3.9v-3.9h3.9V23.7z M23.7,15.8h-3.9v-3.9h3.9V15.8z M23.7,8h-3.9V4.1h3.9V8z M31.5,31.5h-3.9v-3.9h3.9V31.5z
			 M31.5,23.7h-3.9v-3.9h3.9V23.7z"/>
	</g>
</g>
</svg>
