<?xml version="1.0" encoding="utf-8"?>
<!-- Generator: Adobe Illustrator 24.1.3, SVG Export Plug-In . SVG Version: 6.00 Build 0)  -->
<svg version="1.1" id="Calque_1" xmlns="http://www.w3.org/2000/svg" xmlns:xlink="http://www.w3.org/1999/xlink" x="0px" y="0px"
	 viewBox="0 0 360.6 325.5" style="enable-background:new 0 0 360.6 325.5;" xml:space="preserve">
<style type="text/css">
	.st0{opacity:0.212;}
	.st1{fill:#FFFFFF;}
</style>
<g id="Groupe_163" transform="translate(-117.002 -259.035)" class="st0">
	<path id="Tracé_386" class="st1" d="M404.5,388.7c0,0-7.9,18.8-24.1,24.8s-19.5,11.6-20.5,16.2c-1.6,6.3-3.8,12.4-6.6,18.2
		c-2.3,4.3-17.5,30.1-49.5,42.9c-15.9,6.3-24.8-5-28.4-14.5c-5.6,10.3-9.5,21.5-11.6,33c-3.6,19.5-12.6,41.3-34,42.3
		c0,0,5.6-9.6,6.6-19.2s8.6-48.6,15.2-52.8c0,0-10-0.2-15.3,21.1C231,522,225,579.9,178.4,575c0,0,18.3-7.5,25.1-28
		s30.6-70.2,33.5-72.4c0,0-18.3,10.6-34.6,49.8s-52,60.5-67.4,60.1c0,0-8.8,0-11.9-6.6c0,0,12.5,2.9,24.2-8.8s27.5-31.7,39.6-57.2
		s45.6-58.6,78.4-76.4c0,0,2.9,13.2,11.7,11s21.6-13.9,26.9-24.9c0,0-9.5,26.2-9,35.9s3.1,17.6,14.1,17s30.4-12.3,41.2-37.7
		c7.7-16.5,17.2-21.8,20.7-23.1S392.6,407.5,404.5,388.7z"/>
	<path id="Tracé_387" class="st1" d="M406,384.1c0,0-4.4-17.4-17.2-18.7S358.7,398,358.7,398s-13.7,28.6-21.4,37.9
		s-20.9,21.4-31.7,22s7-39,19.6-56.8c0,0-24.2,7.9-29.9,15.4s-8.4,17.2-11.5,17.8s-4.8,0.9-5.7-9.7s-2-8.8-4.8-7.5
		s-10.1,6.8-13.4,8.1s-11.4,4-18.5-7.7s-17-21.8-23.1-24.9s1.3-8.4,1.3-9s-0.2-2.9-3.3-4.2s-16.3-5.9-18.3-14.1
		c-1.2-4.9-4.4-9.1-8.8-11.5c-0.9-0.7-3.3-2-0.4-6.8c1.8-3.1-2.4-3.5-3.5-4.4s-9.2-6.6-0.7-7.9s43.8,0.4,67.6,14.1
		c0,0-23.3-17-61.7-20.9c-18.9-2.9-23.1-13.9-25.1-17.8s-7.5-17.8,1.5-18.5s27.5,4.8,27.5,4.8s-42.7-21.1-44.9-22.2s-9.7-7.5,3.1-13
		c12.8-5.5,41.6,0.2,53.1,5.1s47.8,17.6,85,71.8c0,0,12.3,20.5,14.8,25.5s6.6,11.9,14.1,11.4s16.3-6.2,18.7-8.4s18.9-16.5,31.3-16.1
		s21.8,7,25.1,9.7s11.2,10.3,24.7,10.6s50.6,0.9,58.3,5.9C477.6,376.9,429.8,374.5,406,384.1z"/>
	<path id="Tracé_388" class="st1" d="M209.2,387c0,0-19.6-5.5-18.3-24.2c0,0-28-6.8-42.7-15.9s-24.4-13-29.9-11s9,14.5,10.6,15.6
		c1.5,1.1,18.1,15.9,43.4,20.5c0,0-18.7,1.5-20.3,5.5S193.5,387.4,209.2,387z"/>
	<path id="Tracé_389" class="st1" d="M389.5,383.7c0,0,5.5,0,5.3-2.9s-1.3-6.4-3.7-7s-6.6,0.7-7.5,4S386.2,383.7,389.5,383.7z"/>
</g>
</svg>
