<?xml version="1.0" encoding="utf-8"?>
<!-- Generator: Adobe Illustrator 24.1.3, SVG Export Plug-In . SVG Version: 6.00 Build 0)  -->
<svg version="1.1" id="Calque_1" xmlns="http://www.w3.org/2000/svg" xmlns:xlink="http://www.w3.org/1999/xlink" x="0px" y="0px"
	 viewBox="0 0 18.4 24" style="enable-background:new 0 0 18.4 24;" xml:space="preserve">
<style type="text/css">
	.st0{fill:#FFFFFF;}
</style>
<g id="Groupe_3" transform="translate(-53.896 21.227)">
	<g id="Groupe_2" transform="translate(53.896 -16.601)">
		<path id="Tracé_3" class="st0" d="M8.1,0.1L0.8,2.9C0.2,3.1-0.2,3.8,0.1,4.4l5.4,14.2c0.2,0.6,0.9,0.9,1.5,0.7l7.3-2.8
			c0.6-0.2,0.9-0.9,0.7-1.5L9.6,0.8C9.4,0.2,8.7-0.2,8.1,0.1z M3.6,2.7l2.3-0.9c0.1,0,0.2,0,0.2,0.1c0,0.1,0,0.2-0.1,0.2L3.7,3
			C3.6,3,3.5,3,3.5,2.9C3.5,2.8,3.5,2.7,3.6,2.7C3.6,2.7,3.6,2.7,3.6,2.7z M10.4,17.4c-0.3,0.1-0.6,0-0.8-0.3s0-0.6,0.3-0.8
			c0.3-0.1,0.6,0,0.8,0.3C10.9,16.9,10.8,17.2,10.4,17.4C10.4,17.4,10.4,17.4,10.4,17.4z M13.9,14.3l-8,3L1.1,4.7l8-3L13.9,14.3z"/>
	</g>
	<path id="Tracé_4" class="st0" d="M72-11.3c0.9-3.8-0.8-7.8-4.2-9.8l-0.2-0.1c-0.2-0.1-0.5,0-0.7,0.2c0,0,0,0,0,0.1l0,0
		c-0.1,0.2,0,0.5,0.2,0.6c0.1,0,0.2,0.1,0.3,0.2c2.9,1.8,4.4,5.2,3.6,8.5c0,0.1,0,0.2-0.1,0.3c-0.1,0.2,0.1,0.5,0.3,0.6l0,0
		c0.3,0.1,0.5,0,0.6-0.3c0,0,0,0,0-0.1C72-11.1,72-11.2,72-11.3z"/>
	<path id="Tracé_5" class="st0" d="M66.2-17.9c0.1,0.1,0.2,0.1,0.3,0.2c1.6,1.2,2.4,3.1,2.2,5.1c0,0.1,0,0.2-0.1,0.3
		c0,0.2,0.1,0.5,0.3,0.6l0,0c0.3,0.1,0.5,0,0.6-0.3c0,0,0-0.1,0-0.1c0,0,0-0.1,0-0.1c0.4-2.5-0.6-5-2.7-6.4l-0.1-0.1
		c-0.2-0.1-0.5-0.1-0.7,0.2c0,0,0,0.1,0,0.1l0,0C65.9-18.3,66-18,66.2-17.9z"/>
	<path id="Tracé_6" class="st0" d="M65-16c-0.1,0.2,0,0.4,0.1,0.6c0.1,0.1,0.2,0.2,0.3,0.3c0.3,0.4,0.6,0.9,0.6,1.5
		c0,0.1,0,0.3,0,0.4c0,0.2,0.1,0.4,0.3,0.5c0.3,0.1,0.5,0,0.6-0.3c0-0.1,0-0.1,0-0.2c0,0,0-0.1,0-0.1c0-1.1-0.4-2.2-1.2-2.9
		l-0.1-0.1c-0.2-0.2-0.5-0.2-0.7,0.1C65.1-16.1,65-16,65-16L65-16z"/>
</g>
</svg>
