<?xml version="1.0" encoding="utf-8"?>
<!-- Generator: Adobe Illustrator 24.1.3, SVG Export Plug-In . SVG Version: 6.00 Build 0)  -->
<svg version="1.1" id="Calque_1" xmlns="http://www.w3.org/2000/svg" xmlns:xlink="http://www.w3.org/1999/xlink" x="0px" y="0px"
	 viewBox="0 0 38.8 34.7" style="enable-background:new 0 0 38.8 34.7;" xml:space="preserve">
<style type="text/css">
	.st0{fill:#717070;}
</style>
<g id="Groupe_4" transform="translate(0)">
	<path id="Tracé_11" class="st0" d="M34.3,2.3c-0.4-1.3-1.7-2.2-3.1-2.2H7.6C6.2,0.2,4.9,1,4.5,2.3L0,15.3v17.3
		c0,1.2,1,2.2,2.2,2.2h2.2c1.2,0,2.2-1,2.2-2.2v-2.2h25.9v2.2c0,1.2,1,2.2,2.2,2.2h2.2c1.2,0,2.2-1,2.2-2.2V15.3L34.3,2.3z M8.3,4.5
		h22.2l2.3,6.7H6L8.3,4.5z M34.5,26.1H4.3V15.3h30.2V26.1z"/>
	<circle id="Ellipse_1" class="st0" cx="9.7" cy="20.7" r="3.2"/>
	<circle id="Ellipse_2" class="st0" cx="29.1" cy="20.7" r="3.2"/>
</g>
</svg>
