<?xml version="1.0" encoding="utf-8"?>
<!-- Generator: Adobe Illustrator 24.1.3, SVG Export Plug-In . SVG Version: 6.00 Build 0)  -->
<svg version="1.1" id="Calque_1" xmlns="http://www.w3.org/2000/svg" xmlns:xlink="http://www.w3.org/1999/xlink" x="0px" y="0px"
	 viewBox="0 0 34.3 34.7" style="enable-background:new 0 0 34.3 34.7;" xml:space="preserve">
<style type="text/css">
	.st0{fill:#717070;}
</style>
<path id="Tracé_9" class="st0" d="M17.3,4.4c2.4,0,4.3,1.9,4.3,4.3c0,2.4-1.9,4.3-4.3,4.3S13,11.2,13,8.8l0,0
	C13,6.4,14.9,4.5,17.3,4.4 M17.3,26.1c5.8,0,12.6,2.8,13,4.3h-26C4.8,28.9,11.5,26.1,17.3,26.1 M17.3,0.1c-4.8,0-8.7,3.9-8.7,8.7
	c0,4.8,3.9,8.7,8.7,8.7c4.8,0,8.7-3.9,8.7-8.7C26,4,22.1,0.1,17.3,0.1C17.3,0.1,17.3,0.1,17.3,0.1L17.3,0.1z M17.3,21.8
	C11.5,21.8,0,24.7,0,30.4v4.3h34.6v-4.3C34.6,24.7,23.1,21.8,17.3,21.8L17.3,21.8z"/>
</svg>
