<?xml version="1.0" encoding="utf-8"?>
<!-- Generator: Adobe Illustrator 24.1.3, SVG Export Plug-In . SVG Version: 6.00 Build 0)  -->
<svg version="1.1" id="Calque_1" xmlns="http://www.w3.org/2000/svg" xmlns:xlink="http://www.w3.org/1999/xlink" x="0px" y="0px"
	 viewBox="0 0 33.9 35.6" style="enable-background:new 0 0 33.9 35.6;" xml:space="preserve">
<style type="text/css">
	.st0{fill:#F7A813;}
</style>
<g id="Groupe_8" transform="translate(0)">
	<g id="Groupe_7">
		<g id="Groupe_5" transform="translate(18.379 20.125)">
			<path id="Tracé_12" class="st0" d="M14.9,9L6,0H4.3L0,4.3V6l9,9c0.7,0.7,1.7,0.7,2.4,0l0,0l3.6-3.6C15.6,10.7,15.6,9.6,14.9,9
				L14.9,9z M10.2,11.4L3,4.2L4.2,3l7.2,7.2L10.2,11.4z"/>
		</g>
		<g id="Groupe_6">
			<path id="Tracé_13" class="st0" d="M26,15.6l2.4-2.4l3.6,3.6c2-2,2-5.2,0-7.2l-6-6L23.6,6V1.2L22.4,0l-6,6l1.2,1.2h4.8L20,9.6
				l1.8,1.8l-4.9,4.9l-7-7V6.9L4.8,1.8L0,6.6l5.1,5.1h2.4l7,7l-1.4,1.4H9.5l-9,9c-0.7,0.7-0.7,1.7,0,2.4l0,0l3.6,3.6
				c0.7,0.7,1.7,0.7,2.4,0l0,0l9-9v-3.6l8.7-8.7L26,15.6z M12.5,24.3l-7.2,7.2l-1.2-1.2l7.2-7.2l0,0L12.5,24.3z"/>
		</g>
	</g>
</g>
</svg>
