<?xml version="1.0" encoding="utf-8"?>
<!-- Generator: Adobe Illustrator 24.1.3, SVG Export Plug-In . SVG Version: 6.00 Build 0)  -->
<svg version="1.1" id="Calque_1" xmlns="http://www.w3.org/2000/svg" xmlns:xlink="http://www.w3.org/1999/xlink" x="0px" y="0px"
	 viewBox="0 0 52.1 34.7" style="enable-background:new 0 0 52.1 34.7;" xml:space="preserve">
<style type="text/css">
	.st0{fill:#F7A813;}
</style>
<path id="Tracé_235" class="st0" d="M41.2,13.1h-1.8L35.7,3c-0.6-1.7-2.2-2.8-4.1-2.8H26v4.3h5.6l3.1,8.6H24.5l-0.8-2.2h2.4V6.6
	H15.3v4.3h3.8L23,21.7h-1.4c-0.9-4.8-5.1-8.4-10-8.6c-6-0.2-11.1,4.5-11.3,10.5c0,0.1,0,0.2,0,0.2C0.2,29.7,5,34.5,10.9,34.6
	c0.1,0,0.1,0,0.2,0c5.1,0.1,9.6-3.6,10.6-8.6h9.1c0.9,4.8,5.1,8.4,10,8.6c6,0.2,11.1-4.5,11.3-10.6c0-0.1,0-0.1,0-0.2
	c0-5.9-4.7-10.7-10.6-10.8C41.3,13,41.2,13,41.2,13.1z M17.1,26c-0.9,2.6-3.3,4.3-6.1,4.3c-3.5,0-6.4-2.8-6.5-6.3v-0.1
	c0-3.5,2.8-6.4,6.3-6.5h0.1c2.7,0,5.2,1.7,6.1,4.3h-6V26H17.1z M30.6,21.7h-3L26,17.4h6.5C31.6,18.6,30.9,20.1,30.6,21.7z
	 M41.2,30.3c-3.5,0-6.4-2.8-6.5-6.3v-0.1c0-1.9,0.8-3.7,2.3-4.9l2.1,5.7l4.1-1.5L41,17.4c0,0,0.1,0,0.2,0c3.5,0,6.4,2.8,6.5,6.3v0.1
	c0,3.5-2.8,6.4-6.3,6.5C41.2,30.3,41.2,30.3,41.2,30.3z"/>
</svg>
