<?xml version="1.0" encoding="utf-8"?>
<!-- Generator: Adobe Illustrator 24.1.3, SVG Export Plug-In . SVG Version: 6.00 Build 0)  -->
<svg version="1.1" id="Calque_1" xmlns="http://www.w3.org/2000/svg" xmlns:xlink="http://www.w3.org/1999/xlink" x="0px" y="0px"
	 viewBox="0 0 35.7 35.6" style="enable-background:new 0 0 35.7 35.6;" xml:space="preserve">
<style type="text/css">
	.st0{fill:#F7A813;}
</style>
<g id="Groupe_10" transform="translate(0)">
	<path id="Tracé_15" class="st0" d="M34.6,4.5l-2.7-3.3c-0.5-0.7-1.4-1.1-2.3-1.1H6.1c-0.9,0-1.7,0.4-2.3,1.1L1.2,4.5
		C0.6,5.2,0.3,6.1,0.3,7v24.4c0,2.2,1.8,3.9,3.9,3.9h27.4c2.2,0,3.9-1.8,3.9-3.9V7C35.5,6.1,35.2,5.2,34.6,4.5z M6.6,4h22.5l1.6,1.9
		H5L6.6,4z M4.2,31.4V9.9h27.4v21.5H4.2z"/>
	<g id="Groupe_9" transform="translate(10.045 12.388)">
		<path id="Tracé_16" class="st0" d="M12.9,15.1l2.3-2.3l-2.3-2.3l2-2H8.6v6.2l2-2L12.9,15.1z"/>
		<path id="Tracé_17" class="st0" d="M5.1,12.7l2,2V8.5H0.9l2,2l-2.3,2.3L2.8,15L5.1,12.7z"/>
		<path id="Tracé_18" class="st0" d="M2.8,0.4L0.5,2.7L2.8,5l-2,2H7V0.8l-2,2L2.8,0.4z"/>
		<path id="Tracé_19" class="st0" d="M10.6,2.7l-2-2V7h6.2l-2-2l2.3-2.3l-2.3-2.3L10.6,2.7z"/>
	</g>
</g>
</svg>
