<?xml version="1.0" encoding="utf-8"?>
<!-- Generator: Adobe Illustrator 22.0.0, SVG Export Plug-In . SVG Version: 6.00 Build 0)  -->
<svg version="1.1" id="Calque_1" xmlns="http://www.w3.org/2000/svg" xmlns:xlink="http://www.w3.org/1999/xlink" x="0px" y="0px"
	 viewBox="0 0 299.9 149.2" style="enable-background:new 0 0 299.9 149.2;" xml:space="preserve">
<style type="text/css">
	.st0{fill:#bd0c48;}
</style>
<g>
	<path class="st0" d="M91.9,96.1h1.1l4.3,10.5h-1.4l-1.2-3.1h-4.4l-1.2,3.1h-1.4L91.9,96.1z M94.4,102.4l-1.9-4.8l-1.9,4.8H94.4z"/>
	<path class="st0" d="M103.6,106.6c-0.5,0-1-0.1-1.4-0.3c-0.4-0.2-0.8-0.5-1.1-0.9c-0.3-0.4-0.6-0.8-0.7-1.3c-0.2-0.5-0.3-1-0.3-1.5
		c0-0.5,0.1-1.1,0.3-1.5s0.4-0.9,0.7-1.3c0.3-0.4,0.7-0.7,1.1-0.9c0.4-0.2,0.9-0.3,1.5-0.3c0.6,0,1.2,0.2,1.7,0.5
		c0.5,0.3,0.9,0.7,1.2,1.2v-1.5h1.1v7.6c0,0.5-0.1,1-0.3,1.5c-0.2,0.4-0.5,0.8-0.8,1.1c-0.4,0.3-0.8,0.5-1.2,0.6
		c-0.5,0.1-1,0.2-1.5,0.2c-0.9,0-1.6-0.1-2.1-0.4s-1-0.7-1.4-1.2l0.8-0.7c0.3,0.5,0.7,0.8,1.2,1c0.5,0.2,1,0.3,1.6,0.3
		c0.4,0,0.7,0,1-0.1c0.3-0.1,0.6-0.2,0.8-0.4s0.4-0.4,0.6-0.7c0.1-0.3,0.2-0.6,0.2-1v-1.4c-0.1,0.2-0.3,0.4-0.5,0.6
		s-0.4,0.4-0.7,0.5c-0.2,0.1-0.5,0.2-0.8,0.3C104.1,106.6,103.8,106.6,103.6,106.6z M104,105.6c0.3,0,0.5,0,0.8-0.1
		c0.3-0.1,0.5-0.2,0.7-0.4c0.2-0.2,0.4-0.3,0.5-0.6c0.1-0.2,0.2-0.4,0.3-0.6v-2.2c-0.1-0.3-0.2-0.5-0.4-0.7s-0.4-0.4-0.6-0.6
		c-0.2-0.2-0.4-0.3-0.7-0.4c-0.3-0.1-0.5-0.1-0.8-0.1c-0.4,0-0.7,0.1-1.1,0.3c-0.3,0.2-0.6,0.4-0.8,0.7c-0.2,0.3-0.4,0.6-0.5,0.9
		c-0.1,0.3-0.2,0.7-0.2,1.1c0,0.4,0.1,0.7,0.2,1.1s0.3,0.6,0.6,0.9c0.2,0.3,0.5,0.5,0.8,0.6C103.2,105.5,103.6,105.6,104,105.6z"/>
	<path class="st0" d="M115.3,106.7c-0.6,0-1.1-0.1-1.6-0.3c-0.5-0.2-0.9-0.5-1.2-0.9s-0.6-0.8-0.8-1.3c-0.2-0.5-0.3-1-0.3-1.5
		s0.1-1.1,0.3-1.5c0.2-0.5,0.5-0.9,0.8-1.3c0.3-0.4,0.8-0.7,1.2-0.9c0.5-0.2,1-0.3,1.6-0.3c0.6,0,1.1,0.1,1.6,0.3s0.9,0.5,1.2,0.9
		c0.3,0.4,0.6,0.8,0.8,1.3s0.3,1,0.3,1.5c0,0.1,0,0.2,0,0.3c0,0.1,0,0.2,0,0.2h-6.4c0,0.4,0.1,0.7,0.3,1c0.1,0.3,0.3,0.6,0.6,0.8
		s0.5,0.4,0.8,0.5s0.6,0.2,1,0.2c0.2,0,0.5,0,0.7-0.1c0.2-0.1,0.4-0.1,0.6-0.3c0.2-0.1,0.4-0.2,0.5-0.4s0.3-0.3,0.3-0.5l1.1,0.3
		c-0.1,0.3-0.3,0.5-0.5,0.8s-0.5,0.4-0.8,0.6c-0.3,0.2-0.6,0.3-1,0.4C116.1,106.6,115.7,106.7,115.3,106.7z M117.9,102.2
		c0-0.4-0.1-0.7-0.3-1c-0.2-0.3-0.3-0.6-0.6-0.8s-0.5-0.4-0.8-0.5c-0.3-0.1-0.6-0.2-1-0.2s-0.7,0.1-1,0.2c-0.3,0.1-0.6,0.3-0.8,0.5
		c-0.2,0.2-0.4,0.5-0.6,0.8c-0.1,0.3-0.2,0.6-0.3,1H117.9z"/>
	<path class="st0" d="M129.5,106.5h-1.3v-4.3c0-0.8-0.1-1.4-0.4-1.8c-0.3-0.4-0.6-0.6-1.1-0.6c-0.3,0-0.5,0.1-0.8,0.2
		c-0.3,0.1-0.5,0.2-0.8,0.4s-0.4,0.4-0.6,0.6c-0.2,0.2-0.3,0.5-0.4,0.8v4.6h-1.3v-7.7h1.2v1.6c0.3-0.5,0.7-1,1.3-1.3
		c0.6-0.3,1.2-0.5,1.9-0.5c0.4,0,0.8,0.1,1.1,0.2s0.5,0.4,0.7,0.7c0.2,0.3,0.3,0.6,0.4,1c0.1,0.4,0.1,0.8,0.1,1.3V106.5z"/>
	<path class="st0" d="M133.2,102.7c0-0.5,0.1-1.1,0.3-1.5c0.2-0.5,0.5-0.9,0.8-1.3s0.8-0.6,1.2-0.9c0.5-0.2,1-0.3,1.6-0.3
		c0.8,0,1.4,0.2,2,0.5s1,0.8,1.3,1.4l-1.3,0.4c-0.2-0.4-0.5-0.6-0.8-0.8s-0.7-0.3-1.2-0.3c-0.4,0-0.7,0.1-1,0.2s-0.6,0.3-0.8,0.6
		c-0.2,0.3-0.4,0.6-0.5,0.9c-0.1,0.3-0.2,0.7-0.2,1.1c0,0.4,0.1,0.8,0.2,1.1s0.3,0.7,0.6,0.9c0.2,0.3,0.5,0.5,0.8,0.6s0.6,0.2,1,0.2
		c0.2,0,0.4,0,0.7-0.1c0.2-0.1,0.4-0.1,0.6-0.3c0.2-0.1,0.3-0.2,0.5-0.4s0.2-0.3,0.3-0.5l1.3,0.4c-0.1,0.3-0.3,0.5-0.5,0.8
		c-0.2,0.2-0.5,0.4-0.7,0.6c-0.3,0.2-0.6,0.3-1,0.4c-0.3,0.1-0.7,0.1-1.1,0.1c-0.6,0-1.1-0.1-1.6-0.3c-0.5-0.2-0.9-0.5-1.2-0.9
		s-0.6-0.8-0.8-1.3S133.2,103.2,133.2,102.7z"/>
	<path class="st0" d="M147.4,106.7c-0.6,0-1.1-0.1-1.6-0.3c-0.5-0.2-0.9-0.5-1.2-0.9s-0.6-0.8-0.8-1.3c-0.2-0.5-0.3-1-0.3-1.5
		s0.1-1.1,0.3-1.5c0.2-0.5,0.5-0.9,0.8-1.3c0.3-0.4,0.8-0.7,1.2-0.9c0.5-0.2,1-0.3,1.6-0.3c0.6,0,1.1,0.1,1.6,0.3s0.9,0.5,1.2,0.9
		c0.3,0.4,0.6,0.8,0.8,1.3s0.3,1,0.3,1.5c0,0.1,0,0.2,0,0.3c0,0.1,0,0.2,0,0.2h-6.4c0,0.4,0.1,0.7,0.3,1c0.1,0.3,0.3,0.6,0.6,0.8
		s0.5,0.4,0.8,0.5c0.3,0.1,0.6,0.2,1,0.2c0.2,0,0.5,0,0.7-0.1c0.2-0.1,0.4-0.1,0.6-0.3c0.2-0.1,0.4-0.2,0.5-0.4s0.3-0.3,0.3-0.5
		l1.1,0.3c-0.1,0.3-0.3,0.5-0.5,0.8s-0.5,0.4-0.8,0.6c-0.3,0.2-0.6,0.3-1,0.4C148.2,106.6,147.8,106.7,147.4,106.7z M150.1,102.2
		c0-0.4-0.1-0.7-0.3-1c-0.2-0.3-0.3-0.6-0.6-0.8s-0.5-0.4-0.8-0.5c-0.3-0.1-0.6-0.2-1-0.2s-0.7,0.1-1,0.2c-0.3,0.1-0.6,0.3-0.8,0.5
		c-0.2,0.2-0.4,0.5-0.6,0.8c-0.1,0.3-0.2,0.6-0.3,1H150.1z"/>
	<path class="st0" d="M164,106.7c-0.5,0-1-0.1-1.5-0.3c-0.5-0.2-0.8-0.5-1.2-0.9c-0.3-0.4-0.6-0.8-0.8-1.3s-0.3-1-0.3-1.5
		c0-0.5,0.1-1.1,0.3-1.5s0.4-0.9,0.7-1.3c0.3-0.4,0.7-0.7,1.1-0.9s0.9-0.3,1.4-0.3c0.6,0,1.2,0.2,1.7,0.5c0.5,0.3,0.9,0.7,1.2,1.2
		v-4.6h1.3v9.2c0,0.3,0.1,0.5,0.4,0.5v1.1c-0.1,0-0.2,0-0.3,0c-0.1,0-0.2,0-0.2,0c-0.3,0-0.5-0.1-0.7-0.3s-0.3-0.4-0.3-0.6v-0.6
		c-0.3,0.5-0.7,0.9-1.2,1.2C165.1,106.5,164.6,106.7,164,106.7z M164.3,105.6c0.2,0,0.5,0,0.7-0.1c0.3-0.1,0.5-0.2,0.7-0.4
		c0.2-0.2,0.4-0.3,0.6-0.6s0.3-0.4,0.3-0.7v-2.2c-0.1-0.2-0.2-0.5-0.4-0.7c-0.2-0.2-0.4-0.4-0.6-0.6c-0.2-0.2-0.5-0.3-0.7-0.4
		c-0.3-0.1-0.5-0.1-0.7-0.1c-0.4,0-0.7,0.1-1,0.2s-0.6,0.4-0.8,0.6c-0.2,0.3-0.4,0.6-0.5,0.9c-0.1,0.3-0.2,0.7-0.2,1.1
		c0,0.4,0.1,0.7,0.2,1.1c0.1,0.3,0.3,0.7,0.6,0.9c0.2,0.3,0.5,0.5,0.8,0.6C163.6,105.5,164,105.6,164.3,105.6z"/>
	<path class="st0" d="M175.7,106.7c-0.6,0-1.1-0.1-1.6-0.3c-0.5-0.2-0.9-0.5-1.2-0.9s-0.6-0.8-0.8-1.3c-0.2-0.5-0.3-1-0.3-1.5
		s0.1-1.1,0.3-1.5c0.2-0.5,0.5-0.9,0.8-1.3c0.3-0.4,0.8-0.7,1.2-0.9c0.5-0.2,1-0.3,1.6-0.3c0.6,0,1.1,0.1,1.6,0.3
		c0.5,0.2,0.9,0.5,1.2,0.9s0.6,0.8,0.8,1.3s0.3,1,0.3,1.5c0,0.1,0,0.2,0,0.3c0,0.1,0,0.2,0,0.2h-6.4c0,0.4,0.1,0.7,0.3,1
		c0.1,0.3,0.3,0.6,0.6,0.8c0.2,0.2,0.5,0.4,0.8,0.5c0.3,0.1,0.6,0.2,1,0.2c0.2,0,0.5,0,0.7-0.1c0.2-0.1,0.4-0.1,0.6-0.3
		c0.2-0.1,0.4-0.2,0.5-0.4s0.3-0.3,0.3-0.5l1.1,0.3c-0.1,0.3-0.3,0.5-0.5,0.8c-0.2,0.2-0.5,0.4-0.8,0.6c-0.3,0.2-0.6,0.3-1,0.4
		C176.5,106.6,176.1,106.7,175.7,106.7z M178.4,102.2c0-0.4-0.1-0.7-0.3-1s-0.3-0.6-0.6-0.8c-0.2-0.2-0.5-0.4-0.8-0.5
		c-0.3-0.1-0.6-0.2-1-0.2s-0.7,0.1-1,0.2c-0.3,0.1-0.6,0.3-0.8,0.5c-0.2,0.2-0.4,0.5-0.6,0.8c-0.1,0.3-0.2,0.6-0.3,1H178.4z"/>
	<path class="st0" d="M88,120.4c0-0.5,0.1-1.1,0.3-1.5s0.5-0.9,0.8-1.3c0.3-0.4,0.8-0.6,1.2-0.9c0.5-0.2,1-0.3,1.6-0.3
		c0.8,0,1.4,0.2,2,0.5s1,0.8,1.3,1.4l-1.3,0.4c-0.2-0.4-0.5-0.6-0.8-0.8s-0.7-0.3-1.2-0.3c-0.4,0-0.7,0.1-1,0.2
		c-0.3,0.1-0.6,0.3-0.8,0.6c-0.2,0.3-0.4,0.6-0.5,0.9c-0.1,0.3-0.2,0.7-0.2,1.1c0,0.4,0.1,0.8,0.2,1.1c0.1,0.4,0.3,0.7,0.6,0.9
		c0.2,0.3,0.5,0.5,0.8,0.6c0.3,0.1,0.6,0.2,1,0.2c0.2,0,0.4,0,0.7-0.1c0.2-0.1,0.4-0.1,0.6-0.3s0.3-0.2,0.5-0.4
		c0.1-0.1,0.2-0.3,0.3-0.5l1.3,0.4c-0.1,0.3-0.3,0.5-0.5,0.8c-0.2,0.2-0.5,0.4-0.7,0.6c-0.3,0.2-0.6,0.3-1,0.4
		c-0.3,0.1-0.7,0.1-1.1,0.1c-0.6,0-1.1-0.1-1.6-0.3c-0.5-0.2-0.9-0.5-1.2-0.9s-0.6-0.8-0.8-1.3C88.1,121.4,88,120.9,88,120.4z"/>
	<path class="st0" d="M102.2,124.4c-0.6,0-1.1-0.1-1.6-0.3s-0.9-0.5-1.2-0.9s-0.6-0.8-0.8-1.3c-0.2-0.5-0.3-1-0.3-1.5
		c0-0.5,0.1-1.1,0.3-1.5c0.2-0.5,0.5-0.9,0.8-1.3s0.7-0.7,1.2-0.9s1-0.3,1.6-0.3c0.6,0,1.1,0.1,1.6,0.3c0.5,0.2,0.9,0.5,1.2,0.9
		s0.6,0.8,0.8,1.3c0.2,0.5,0.3,1,0.3,1.5c0,0.5-0.1,1-0.3,1.5c-0.2,0.5-0.5,0.9-0.8,1.3s-0.8,0.7-1.2,0.9S102.8,124.4,102.2,124.4z
		 M99.7,120.4c0,0.4,0.1,0.8,0.2,1.1s0.3,0.6,0.5,0.9c0.2,0.3,0.5,0.5,0.8,0.6c0.3,0.1,0.6,0.2,1,0.2s0.7-0.1,1-0.2
		c0.3-0.1,0.6-0.4,0.8-0.6c0.2-0.3,0.4-0.6,0.6-0.9c0.1-0.3,0.2-0.7,0.2-1.1c0-0.4-0.1-0.8-0.2-1.1c-0.1-0.3-0.3-0.7-0.6-0.9
		c-0.2-0.3-0.5-0.5-0.8-0.6c-0.3-0.1-0.6-0.2-1-0.2s-0.7,0.1-1,0.2c-0.3,0.2-0.6,0.4-0.8,0.6c-0.2,0.3-0.4,0.6-0.5,0.9
		S99.7,120,99.7,120.4z"/>
	<path class="st0" d="M121.5,124.2h-1.3v-4.3c0-0.8-0.1-1.4-0.4-1.8c-0.3-0.4-0.6-0.6-1.2-0.6c-0.5,0-1,0.2-1.4,0.6
		c-0.4,0.4-0.7,0.9-0.9,1.5v4.6H115v-4.3c0-0.8-0.1-1.4-0.4-1.8c-0.3-0.4-0.6-0.6-1.1-0.6c-0.5,0-1,0.2-1.4,0.6
		c-0.4,0.4-0.7,0.9-0.9,1.5v4.6h-1.3v-7.7h1.2v1.6c0.3-0.6,0.7-1,1.2-1.3c0.5-0.3,1.1-0.5,1.7-0.5c0.6,0,1.2,0.2,1.5,0.5
		s0.6,0.8,0.7,1.3c0.7-1.2,1.7-1.9,2.9-1.9c0.4,0,0.8,0.1,1.1,0.2s0.5,0.4,0.7,0.7c0.2,0.3,0.3,0.6,0.4,1c0.1,0.4,0.1,0.8,0.1,1.3
		V124.2z"/>
	<path class="st0" d="M137.3,124.2H136v-4.3c0-0.8-0.1-1.4-0.4-1.8c-0.3-0.4-0.6-0.6-1.2-0.6c-0.5,0-1,0.2-1.4,0.6
		c-0.4,0.4-0.7,0.9-0.9,1.5v4.6h-1.3v-4.3c0-0.8-0.1-1.4-0.4-1.8c-0.3-0.4-0.6-0.6-1.1-0.6c-0.5,0-1,0.2-1.4,0.6s-0.7,0.9-0.9,1.5
		v4.6h-1.3v-7.7h1.2v1.6c0.3-0.6,0.7-1,1.2-1.3c0.5-0.3,1.1-0.5,1.7-0.5c0.6,0,1.2,0.2,1.5,0.5s0.6,0.8,0.7,1.3
		c0.7-1.2,1.7-1.9,2.9-1.9c0.4,0,0.8,0.1,1.1,0.2c0.3,0.2,0.5,0.4,0.7,0.7s0.3,0.6,0.4,1c0.1,0.4,0.1,0.8,0.1,1.3V124.2z"/>
	<path class="st0" d="M143.9,124.4c-0.8,0-1.4-0.3-1.8-0.8c-0.4-0.5-0.6-1.3-0.6-2.4v-4.6h1.3v4.4c0,1.6,0.5,2.4,1.6,2.4
		c0.5,0,1-0.2,1.5-0.5c0.5-0.3,0.8-0.8,1-1.4v-4.8h1.3v6.1c0,0.3,0.1,0.5,0.4,0.5v1.1c-0.1,0-0.3,0-0.3,0s-0.2,0-0.2,0
		c-0.3,0-0.5-0.1-0.6-0.2s-0.3-0.3-0.3-0.6l0-0.9c-0.3,0.6-0.8,1-1.4,1.3S144.6,124.4,143.9,124.4z"/>
	<path class="st0" d="M159.2,124.2h-1.3v-4.3c0-0.8-0.1-1.4-0.4-1.8c-0.3-0.4-0.6-0.6-1.1-0.6c-0.3,0-0.5,0.1-0.8,0.2
		c-0.3,0.1-0.5,0.2-0.8,0.4s-0.4,0.4-0.6,0.6c-0.2,0.2-0.3,0.5-0.4,0.8v4.6h-1.3v-7.7h1.2v1.6c0.3-0.5,0.7-1,1.3-1.3
		c0.6-0.3,1.2-0.5,1.9-0.5c0.4,0,0.8,0.1,1.1,0.2s0.5,0.4,0.7,0.7s0.3,0.6,0.4,1c0.1,0.4,0.1,0.8,0.1,1.3V124.2z"/>
	<path class="st0" d="M163.5,115.1v-1.6h1.3v1.6H163.5z M163.5,124.2v-7.7h1.3v7.7H163.5z"/>
	<path class="st0" d="M168.6,120.4c0-0.5,0.1-1.1,0.3-1.5s0.5-0.9,0.8-1.3c0.3-0.4,0.8-0.6,1.2-0.9c0.5-0.2,1-0.3,1.6-0.3
		c0.8,0,1.4,0.2,2,0.5s1,0.8,1.3,1.4l-1.3,0.4c-0.2-0.4-0.5-0.6-0.8-0.8s-0.7-0.3-1.2-0.3c-0.4,0-0.7,0.1-1,0.2
		c-0.3,0.1-0.6,0.3-0.8,0.6c-0.2,0.3-0.4,0.6-0.5,0.9c-0.1,0.3-0.2,0.7-0.2,1.1c0,0.4,0.1,0.8,0.2,1.1s0.3,0.7,0.6,0.9
		c0.2,0.3,0.5,0.5,0.8,0.6c0.3,0.1,0.6,0.2,1,0.2c0.2,0,0.4,0,0.7-0.1c0.2-0.1,0.4-0.1,0.6-0.3s0.3-0.2,0.5-0.4
		c0.1-0.1,0.2-0.3,0.3-0.5l1.3,0.4c-0.1,0.3-0.3,0.5-0.5,0.8c-0.2,0.2-0.5,0.4-0.7,0.6c-0.3,0.2-0.6,0.3-1,0.4
		c-0.3,0.1-0.7,0.1-1.1,0.1c-0.6,0-1.1-0.1-1.6-0.3c-0.5-0.2-0.9-0.5-1.2-0.9s-0.6-0.8-0.8-1.3C168.7,121.4,168.6,120.9,168.6,120.4
		z"/>
	<path class="st0" d="M181.4,124.4c-0.4,0-0.7-0.1-1-0.2c-0.3-0.1-0.6-0.3-0.8-0.5s-0.4-0.5-0.5-0.8c-0.1-0.3-0.2-0.6-0.2-0.9
		c0-0.4,0.1-0.7,0.2-1c0.2-0.3,0.4-0.5,0.7-0.7c0.3-0.2,0.6-0.4,1-0.5c0.4-0.1,0.8-0.2,1.3-0.2c0.4,0,0.8,0,1.1,0.1s0.7,0.2,1,0.3
		v-0.6c0-0.6-0.2-1.1-0.5-1.5s-0.9-0.5-1.5-0.5c-0.8,0-1.6,0.3-2.4,0.9l-0.4-0.8c1-0.7,2-1,3-1c1,0,1.8,0.3,2.4,0.8
		c0.6,0.5,0.8,1.3,0.8,2.3v3.1c0,0.3,0.1,0.5,0.4,0.5v1.1c-0.1,0-0.3,0-0.3,0c-0.1,0-0.2,0-0.3,0c-0.3,0-0.5-0.1-0.6-0.2
		s-0.2-0.3-0.3-0.6l0-0.5c-0.3,0.5-0.8,0.8-1.3,1.1C182.6,124.2,182,124.4,181.4,124.4z M181.8,123.4c0.5,0,0.9-0.1,1.3-0.3
		c0.4-0.2,0.7-0.4,0.9-0.7c0.2-0.2,0.3-0.4,0.3-0.6v-1.1c-0.6-0.2-1.3-0.4-2-0.4c-0.6,0-1.2,0.1-1.6,0.4c-0.4,0.3-0.6,0.6-0.6,1.1
		c0,0.2,0,0.4,0.1,0.6c0.1,0.2,0.2,0.3,0.4,0.5s0.3,0.2,0.5,0.3C181.3,123.3,181.5,123.4,181.8,123.4z"/>
	<path class="st0" d="M193.7,123.8c-0.1,0-0.2,0.1-0.3,0.1c-0.1,0.1-0.3,0.1-0.4,0.2c-0.2,0.1-0.3,0.1-0.5,0.1s-0.4,0.1-0.6,0.1
		c-0.5,0-0.9-0.1-1.2-0.4c-0.3-0.3-0.5-0.7-0.5-1.2v-5.2h-1v-1h1V114h1.3v2.6h1.7v1h-1.7v4.8c0,0.3,0.1,0.5,0.3,0.6s0.4,0.2,0.6,0.2
		c0.3,0,0.5,0,0.7-0.1c0.2-0.1,0.4-0.1,0.4-0.2L193.7,123.8z"/>
	<path class="st0" d="M197.1,115.1v-1.6h1.3v1.6H197.1z M197.1,124.2v-7.7h1.3v7.7H197.1z"/>
	<path class="st0" d="M206.1,124.4c-0.6,0-1.1-0.1-1.6-0.3s-0.9-0.5-1.2-0.9s-0.6-0.8-0.8-1.3c-0.2-0.5-0.3-1-0.3-1.5
		c0-0.5,0.1-1.1,0.3-1.5c0.2-0.5,0.5-0.9,0.8-1.3s0.7-0.7,1.2-0.9s1-0.3,1.6-0.3c0.6,0,1.1,0.1,1.6,0.3c0.5,0.2,0.9,0.5,1.2,0.9
		s0.6,0.8,0.8,1.3c0.2,0.5,0.3,1,0.3,1.5c0,0.5-0.1,1-0.3,1.5c-0.2,0.5-0.5,0.9-0.8,1.3s-0.8,0.7-1.2,0.9S206.7,124.4,206.1,124.4z
		 M203.6,120.4c0,0.4,0.1,0.8,0.2,1.1s0.3,0.6,0.5,0.9c0.2,0.3,0.5,0.5,0.8,0.6c0.3,0.1,0.6,0.2,1,0.2s0.7-0.1,1-0.2
		c0.3-0.1,0.6-0.4,0.8-0.6c0.2-0.3,0.4-0.6,0.6-0.9c0.1-0.3,0.2-0.7,0.2-1.1c0-0.4-0.1-0.8-0.2-1.1c-0.1-0.3-0.3-0.7-0.6-0.9
		c-0.2-0.3-0.5-0.5-0.8-0.6c-0.3-0.1-0.6-0.2-1-0.2s-0.7,0.1-1,0.2c-0.3,0.2-0.6,0.4-0.8,0.6c-0.2,0.3-0.4,0.6-0.5,0.9
		S203.6,120,203.6,120.4z"/>
	<path class="st0" d="M220.4,124.2h-1.3v-4.3c0-0.8-0.1-1.4-0.4-1.8c-0.3-0.4-0.6-0.6-1.1-0.6c-0.3,0-0.5,0.1-0.8,0.2
		c-0.3,0.1-0.5,0.2-0.8,0.4c-0.2,0.2-0.4,0.4-0.6,0.6c-0.2,0.2-0.3,0.5-0.4,0.8v4.6h-1.3v-7.7h1.2v1.6c0.3-0.5,0.7-1,1.3-1.3
		s1.2-0.5,1.9-0.5c0.4,0,0.8,0.1,1.1,0.2c0.3,0.2,0.5,0.4,0.7,0.7s0.3,0.6,0.4,1s0.1,0.8,0.1,1.3V124.2z"/>
</g>
<g>
	<rect x="271.3" y="31.9" class="st0" width="8.5" height="8.5"/>
</g>
<path fill="#FFF" d="M239.3,68.4l11-28h12.5v44.8h-8.6V52.9l-12.6,32.3h-4.2l-12.6-32.3v32.3H216V40.4h12.5L239.3,68.4z"/>
<path fill="#FFF" d="M188.5,86.2c-12.8,0-23.3-10.4-23.3-23.3s10.4-23.3,23.3-23.3c12.8,0,23.3,10.4,23.3,23.3S201.4,86.2,188.5,86.2z
	 M188.5,48.4c-8,0-14.5,6.5-14.5,14.5c0,8,6.5,14.5,14.5,14.5c8,0,14.5-6.5,14.5-14.5C203.1,54.9,196.5,48.4,188.5,48.4z"/>
<path fill="#FFF" d="M144.2,86.2c-12.5,0-22.7-10.4-22.7-23.3s10.2-23.3,22.7-23.3c6.8,0,13.2,3.1,17.6,8.5l-6.8,5.5c-2.7-3.3-6.6-5.2-10.8-5.2
	c-7.7,0-14,6.5-14,14.5c0,8,6.3,14.5,14,14.5c4.2,0,8.2-2,10.9-5.4c0.5-0.6,1-1.3,1.4-2.1l7.7,4.2c-0.6,1.2-1.4,2.3-2.2,3.3
	C157.6,83,151.2,86.2,144.2,86.2z"/>
<path fill="#FFF" d="M71.4,85.3h10.1L64.2,40.5H53.9L36.6,85.3h9.8L50,75.3h17.8L71.4,85.3z M53.1,66.5L58.9,50l5.8,16.5H53.1z"/>
<path fill="#FFF" d="M97.6,58.7l0.1,6.9c0,0,1.6,0,2.4,0c11.3,0,10.9,6.9,7.1,9.8c-2.8,2.1-6.1,2.1-7.9,2.2C91.4,77.9,87.5,72,87.5,72l-6.8,5.2
	c0,0,6.2,9.1,19.1,9.1c4.6,0,9.7-1.7,12.8-4.1c5.2-3.9,7.1-10,5.4-14.9c-1-3.1-3.5-4.8-5.5-5.7c0,0,0,0,0,0s2.5-1.6,3.4-4.5
	c1.6-5.2-1.1-11.4-5.9-14.4c-3.6-2.2-7.4-2.9-11.5-2.9c-6,0-13.3,2.9-17.5,8.5l6.9,5.5c0,0,3.6-5.2,10.6-5.2c6.9,0,9.1,3.4,9.1,5.2
	c0,1.7-1.2,4.3-5.3,4.6C98.6,58.7,97.6,58.7,97.6,58.7z"/>
</svg>
